<?xml version="1.0" encoding="UTF-8"?>
<svg id="Capa_2" data-name="Capa 2" xmlns="http://www.w3.org/2000/svg" viewBox="0 0 632.61 920">
  <defs>
    <style>
      .cls-1 {
        fill: #58ad53;
      }

      .cls-1, .cls-2 {
        stroke-width: 0px;
      }

      .cls-2 {
        fill: #394d37;
      }
    </style>
  </defs>
  <g id="Capa_1-2" data-name="Capa 1">
    <g id="Capa_1-2" data-name="Capa 1-2">
      <g>
        <path class="cls-1" d="M486.36,470.63c8.67,38.4,10.22,80.21,2.94,123.1-18.58,111.64-90.12,198.04-175.75,224.68,118.76-2.79,214.15-99.87,214.15-219.41.31-48-15.17-92.29-41.34-128.36h0Z"/>
        <path class="cls-1" d="M468.71,326.32c-39.02-18.58-52.65-59.46-52.65-59.46,50.94-48.47,63.64-124.8,66.12-177.6,2.48-52.65,51.72-80.67,51.72-80.67,0,0-105.45-42.58-188.6,61.94-83.15,104.52-30.97,195.41-30.97,195.41-13.47-113.19,74.48-161.5,74.48-161.5,0,0-69.37,88.26-26.01,186.27,3.72,8.36,11.3,19.36,19.97,30.5,19.51,25.08,43.2,46.45,69.99,63.33,74.79,46.76,124.03,130.69,121.71,225.76-3.56,137.65-117.37,249.91-255.02,251.46-46.61.62-90.43-11.3-128.36-32.52-17.96,16.26-40.1,16.41-40.1,16.41,8.67-4.8,25.55-25.08,25.55-25.08,25.08-36.7,38.71-81.45,38.71-126.04,0-65.65-27.41-128.36-32.67-193.71-3.56-43.67,3.41-88.1,19.36-128.83.77-2.17,1.7-4.18,2.63-6.19-38.87,30.5-142.92,127.12-141.68,287.7,0,0-58.99-174.35,141.06-345.3C84.85,353.57,0,468.93,0,603.79c0,107.61,54.04,202.84,136.42,259.98,53.73,37.32,119.54,58.38,190.46,56.05,163.51-5.26,297.45-137.03,305.35-300.39,6.19-126.04-61.47-236.91-163.51-293.12h0Z"/>
        <path class="cls-2" d="M191.85,197.03s44.28,7.9,75.56,46.3c-1.24-19.05-7.43-44.59-28.34-67.05-39.17-41.96-94.61-28.18-94.61-28.18,0,0-14.56,55.28,26.79,95.07,41.34,39.79,94.61,28.18,94.61,28.18,0,0-33.45-55.59-74.01-74.32h0Z"/>
      </g>
    </g>
  </g>
</svg>